<svg viewBox="0 0 32 32" fill="none" xmlns="http://www.w3.org/2000/svg" role="img" aria-label="Signal Box">
  <rect width="32" height="32" rx="8" fill="#2563EB"/>
  <path d="M 3.00 16.00 L 3.41 17.27 L 3.81 18.49 L 4.22 19.61 L 4.63 20.60 L 5.03 21.40 L 5.44 22.01 L 5.84 22.38 L 6.25 22.50 L 6.66 22.38 L 7.06 22.01 L 7.47 21.40 L 7.88 20.60 L 8.28 19.61 L 8.69 18.49 L 9.09 17.27 L 9.50 16.00 L 9.91 14.73 L 10.31 13.51 L 10.72 12.39 L 11.13 11.40 L 11.53 10.60 L 11.94 9.99 L 12.34 9.62 L 12.75 9.50 L 13.16 9.62 L 13.56 9.99 L 13.97 10.60 L 14.38 11.40 L 14.78 12.39 L 15.19 13.51 L 15.59 14.73 L 16.00 16.00 L 16.41 17.27 L 16.81 18.49 L 17.22 19.61 L 17.63 20.60 L 18.03 21.40 L 18.44 22.01 L 18.84 22.38 L 19.25 22.50 L 19.66 22.38 L 20.06 22.01 L 20.47 21.40 L 20.88 20.60 L 21.28 19.61 L 21.69 18.49 L 22.09 17.27 L 22.50 16.00 L 22.91 14.73 L 23.31 13.51 L 23.72 12.39 L 24.13 11.40 L 24.53 10.60 L 24.94 9.99 L 25.34 9.62 L 25.75 9.50 L 26.16 9.62 L 26.56 9.99 L 26.97 10.60 L 27.38 11.40 L 27.78 12.39 L 28.19 13.51 L 28.59 14.73 L 29.00 16.00" stroke="#FFFFFF" stroke-width="2.5" stroke-linecap="round" stroke-linejoin="round"/>
</svg>
