<svg viewBox="0 0 24 24" fill="none" xmlns="http://www.w3.org/2000/svg" role="img" aria-label="Signal Box">
  <path d="M 2.00 12.00 L 2.31 12.98 L 2.63 13.91 L 2.94 14.78 L 3.25 15.54 L 3.56 16.16 L 3.88 16.62 L 4.19 16.90 L 4.50 17.00 L 4.81 16.90 L 5.13 16.62 L 5.44 16.16 L 5.75 15.54 L 6.06 14.78 L 6.38 13.91 L 6.69 12.98 L 7.00 12.00 L 7.31 11.02 L 7.63 10.09 L 7.94 9.22 L 8.25 8.46 L 8.56 7.84 L 8.88 7.38 L 9.19 7.10 L 9.50 7.00 L 9.81 7.10 L 10.13 7.38 L 10.44 7.84 L 10.75 8.46 L 11.06 9.22 L 11.38 10.09 L 11.69 11.02 L 12.00 12.00 L 12.31 12.98 L 12.63 13.91 L 12.94 14.78 L 13.25 15.54 L 13.56 16.16 L 13.88 16.62 L 14.19 16.90 L 14.50 17.00 L 14.81 16.90 L 15.13 16.62 L 15.44 16.16 L 15.75 15.54 L 16.06 14.78 L 16.38 13.91 L 16.69 12.98 L 17.00 12.00 L 17.31 11.02 L 17.63 10.09 L 17.94 9.22 L 18.25 8.46 L 18.56 7.84 L 18.88 7.38 L 19.19 7.10 L 19.50 7.00 L 19.81 7.10 L 20.13 7.38 L 20.44 7.84 L 20.75 8.46 L 21.06 9.22 L 21.38 10.09 L 21.69 11.02 L 22.00 12.00" stroke="#2563EB" stroke-width="2" stroke-linecap="round" stroke-linejoin="round"/>
</svg>
